<svg version="1.1" xmlns="http://www.w3.org/2000/svg" style="display: block;" viewBox="0 0 2048 2048" width="2000" height="2000" preserveAspectRatio="none">
<defs>
	<linearGradient id="Gradient1" gradientUnits="userSpaceOnUse" x1="972.675" y1="721.297" x2="773.357" y2="716.439">
		<stop class="stop0" offset="0" stop-opacity="1" stop-color="rgb(75,103,226)"/>
		<stop class="stop1" offset="1" stop-opacity="1" stop-color="rgb(9,152,225)"/>
	</linearGradient>
	<linearGradient id="Gradient2" gradientUnits="userSpaceOnUse" x1="1326.32" y1="805.875" x2="959.798" y2="790.801">
		<stop class="stop0" offset="0" stop-opacity="1" stop-color="rgb(138,38,202)"/>
		<stop class="stop1" offset="1" stop-opacity="1" stop-color="rgb(79,96,227)"/>
	</linearGradient>
	<linearGradient id="Gradient3" gradientUnits="userSpaceOnUse" x1="1349.79" y1="1096.88" x2="934.662" y2="1008.12">
		<stop class="stop0" offset="0" stop-opacity="1" stop-color="rgb(147,34,201)"/>
		<stop class="stop1" offset="1" stop-opacity="1" stop-color="rgb(76,104,228)"/>
	</linearGradient>
	<linearGradient id="Gradient4" gradientUnits="userSpaceOnUse" x1="965" y1="943.502" x2="740.998" y2="943.5">
		<stop class="stop0" offset="0" stop-opacity="1" stop-color="rgb(73,106,221)"/>
		<stop class="stop1" offset="1" stop-opacity="1" stop-color="rgb(2,164,232)"/>
	</linearGradient>
</defs>
<rect x="0" y="0" width="2048" height="2048" rx="200" ry="200" fill="rgb(250,250,250)"/>
<g transform="translate(1024, 1024) scale(2.6) translate(-1036, -885)">
<path transform="translate(0,0)" fill="url(#Gradient4)" stroke="rgb(75,103,226)" stroke-width="0.5" d="M 739.776 642.592 C 874.341 816.259 1081.75 972.202 1301.42 1011.35 C 1282.95 1012.4 1264.05 1010.09 1245.71 1007.83 C 1236.85 1006.74 1226.68 1004.55 1217.9 1004.15 C 1229.88 1017.21 1246.77 1039.81 1258.56 1054.19 L 1342.76 1155.94 C 1270.4 1154.39 1193.78 1155.82 1121.06 1155.79 C 1092.08 1124.57 1057.33 1080.34 1029.24 1046.55 L 994.295 1004.42 C 988.85 997.85 979.121 986.799 974.673 979.963 C 966.16 970.978 959.167 960.606 950.96 951.994 C 951.586 1019.96 951.661 1087.94 951.185 1155.91 L 814.346 1155.81 C 790.612 1155.83 763.014 1155.22 739.46 1156.02 C 739.885 1124.53 739.965 1093.03 739.698 1061.53 C 738.416 1053.75 738.888 1029.57 738.891 1020.55 L 738.992 942.647 L 739.776 642.592 z"/>
<path transform="translate(0,0)" fill="url(#Gradient3)" d="M 955.474 953.571 C 956.024 933.866 946.068 908.821 972.057 911.023 C 1033.78 948.055 1100.53 975.989 1170.23 993.964 C 1183.98 997.479 1204.11 1002.42 1217.9 1004.15 C 1229.88 1017.21 1246.77 1039.81 1258.56 1054.19 L 1342.76 1155.94 C 1270.4 1154.39 1193.78 1155.82 1121.06 1155.79 C 1092.08 1124.57 1057.33 1080.34 1029.24 1046.55 L 994.295 1004.42 C 988.85 997.85 979.121 986.799 974.673 979.963 C 973.898 972.66 960.48 959.719 955.474 953.571 z"/>
<path transform="translate(0,0)" fill="rgb(201,202,204)" d="M 739.776 642.592 C 874.341 816.259 1081.75 972.202 1301.42 1011.35 C 1282.95 1012.4 1264.05 1010.09 1245.71 1007.83 C 1236.85 1006.74 1226.68 1004.55 1217.9 1004.15 C 1204.11 1002.42 1183.98 997.479 1170.23 993.964 C 1100.53 975.989 1033.78 948.055 972.057 911.023 C 883.018 857.483 814.062 802.684 739.818 730.309 L 739.698 1061.53 C 738.416 1053.75 738.888 1029.57 738.891 1020.55 L 738.992 942.647 L 739.776 642.592 z"/>
<path transform="translate(0,0)" fill="url(#Gradient2)" stroke="rgb(79,96,227)" stroke-width="2" d="M 1010.61 614.286 C 1083.72 613.5 1149.42 616.517 1216.7 649.362 C 1284.46 682.437 1327.06 739.958 1328.01 816.735 C 1328.62 866.466 1311.21 910.588 1276.28 946.247 C 1263.88 958.931 1240.3 976.896 1223.99 984.233 C 1152.45 958.606 1084.34 924.267 1021.19 881.993 C 1047.86 881.981 1077.47 880.021 1097.73 860.189 C 1120 838.375 1119.75 798.19 1097.78 776.194 C 1071.8 750.182 1028.35 756.797 994.726 755.11 C 989.115 751.052 976.054 756.24 971.302 752.85 C 971.561 751.993 971.797 751.128 972.07 750.275 C 977.074 734.626 967.273 714.473 969.251 708.303 C 973.672 694.514 964.24 649.774 967.329 636.674 C 967.836 634.523 969.155 632.529 970.28 630.655 C 971.937 627.893 975.009 623.932 974.888 620.599 C 974.833 619.06 974.863 618.015 975.118 616.502 C 983.513 616.135 1003.37 616.348 1010.61 614.286 z"/>
<path transform="translate(0,0)" fill="url(#Gradient1)" stroke="rgb(75,103,226)" stroke-width="2" d="M 744.452 613.974 L 794.278 614.402 L 947.241 614.276 C 967.746 614.313 990.299 613.746 1010.61 614.286 C 1003.37 616.348 983.513 616.135 975.118 616.502 C 974.863 618.015 974.833 619.06 974.888 620.599 C 975.009 623.932 971.937 627.893 970.28 630.655 C 969.155 632.529 967.836 634.523 967.329 636.674 C 964.24 649.774 973.672 694.514 969.251 708.303 C 967.273 714.473 977.074 734.626 972.07 750.275 C 971.797 751.128 971.561 751.993 971.302 752.85 C 976.054 756.24 989.115 751.052 994.726 755.11 C 987.064 756.12 960.741 755.224 951.591 755.067 C 952.266 780.526 951.039 806.028 951.9 831.436 C 935.848 817.061 918.009 803.434 901.479 788.489 C 854.577 746.461 811.452 700.4 772.602 650.834 C 762.703 639 753.616 626.395 744.452 613.974 z"/>
<path transform="translate(0,0)" fill="rgb(4,146,228)" d="M 744.452 613.974 L 794.278 614.402 C 796.898 616.276 800.237 615.504 803.406 615.325 C 795.935 621.683 788.993 624.143 788.388 635.123 C 788.003 642.121 778.048 646.984 772.602 650.834 C 762.703 639 753.616 626.395 744.452 613.974 z"/>
</g>
</svg>