<svg id="svg" version="1.1" viewBox="0 0 299.9618663270401 300" width="299.9618663270401" height="300" xmlns="http://www.w3.org/2000/svg"><g fill-rule="evenodd"><path d="M59.42876,0.05886c-7.87008,0.6996 -17.10227,3.51331 -24.34988,7.42066c-6.06226,3.26832 -10.5372,6.62144 -15.58442,11.67682c-10.06083,10.07789 -15.93496,21.43087 -18.61889,35.98542c-0.92159,4.99778 -0.92727,5.64052 -0.84026,92.82621c0.09072,90.93112 0.0267,85.85003 1.151,91.59018c2.84659,14.53453 9.57482,27.50054 19.67619,37.91759c12.15665,12.53661 27.96207,20.45885 44.1833,22.14603c3.18922,0.33175 13.6567,0.37847 84.66838,0.37823c53.10524,0 81.96616,-0.08702 83.74828,-0.25215c15.71742,-1.45679 29.86433,-7.71434 42.10157,-18.62334c4.46579,-3.98077 8.7049,-8.8594 11.84467,-13.63198c2.96203,-4.50189 3.20924,-4.92016 4.86627,-8.2315c3.78202,-7.55761 6.02122,-14.75702 7.24341,-23.28739c0.41877,-2.92273 0.44275,-7.76675 0.44275,-89.48892c0,-92.82794 0.07441,-87.33846 -1.27163,-93.93864c-1.69213,-8.29874 -4.99828,-16.21356 -9.73105,-23.29505c-2.61075,-3.90612 -4.77851,-6.54431 -8.35164,-10.16293c-9.53996,-9.66109 -22.04295,-16.1038 -36.14363,-18.62482c-2.17888,-0.3896 -8.90909,-0.42248 -93.19702,-0.4561c-49.96671,-0.02002 -91.29353,0.00321 -91.83738,0.05167z" fill="black" /><path d="M168.19982,51.89766c10.75251,1.7082 21.12705,5.8195 29.29402,11.60859c14.847,10.52459 24.57039,26.93443 27.08177,45.7051c0.77178,5.76932 0.6991,14.79484 -0.15871,19.67619c-2.07061,11.78411 -6.45284,22.15123 -13.00531,30.76787c-2.17048,2.854 -7.95586,8.78252 -10.61828,10.88081c-8.62876,6.80066 -19.10415,11.58338 -30.05962,13.72468c-1.86938,0.36562 -3.39811,0.77574 -3.39712,0.9117c0.00074,0.13596 0.73519,1.29784 1.63206,2.58183c2.43944,3.49378 9.11749,13.16031 10.93915,15.83509c5.70133,8.37067 9.51228,12.35886 13.93061,14.57854c7.16974,3.60156 14.12689,1.61797 22.27458,-6.35124l2.17987,-2.13216l-4.59014,-4.59508c-2.52448,-2.5272 -4.59014,-4.67716 -4.59014,-4.77802c0,-0.10061 7.23649,-0.18293 16.08106,-0.18293h16.08106l0.3582,0.85731c0.49441,1.18338 0.54188,31.53075 0.04919,31.52012c-0.16983,-0.00371 -2.25576,-1.95145 -4.63513,-4.32859l-4.32612,-4.32192l-2.96648,3.04386c-7.16925,7.35614 -12.96205,11.52479 -19.36125,13.93357c-6.67854,2.5136 -15.57527,2.59716 -22.70126,0.21285c-5.82642,-1.94947 -10.30705,-4.84229 -15.62397,-10.08728c-4.44923,-4.38916 -6.50649,-7.08322 -14.4139,-18.87475c-1.99298,-2.97242 -4.65021,-6.90597 -5.90479,-8.74149c-1.25433,-1.83551 -3.30343,-4.83908 -4.5533,-6.67459c-1.24988,-1.83551 -3.46658,-5.0895 -4.92585,-7.2308l-2.65352,-3.89351h-11.60389h-11.60414l0.01409,13.78179c0.00766,7.57986 0.00791,20.42869 0.00074,28.5524l-0.01335,14.77062h-20.14737h-20.14737v-21.90797c0,-23.6713 0.04178,-24.57138 1.35371,-29.09354c3.11975,-10.75548 11.14533,-19.10564 21.76014,-22.6402c1.22367,-0.40764 3.6154,-1.04445 5.31495,-1.41551l3.09009,-0.67463l28.3052,-0.16736c24.59536,-0.1456 28.56452,-0.21977 30.28285,-0.5661c7.62559,-1.53639 13.13954,-3.76941 18.91133,-7.65897c11.50229,-7.75093 18.59046,-19.29327 20.75253,-33.79344c1.87309,-12.56256 -2.12623,-27.30549 -10.05687,-37.07214c-2.64956,-3.26288 -6.53665,-6.94652 -9.70683,-9.19857c-5.91912,-4.20474 -15.22078,-7.69407 -22.31636,-8.37142c-1.83749,-0.17527 -11.83899,-0.2393 -29.5971,-0.18961c-30.25442,0.08504 -27.54058,-0.09666 -31.066,2.08074c-3.00826,1.85825 -5.13671,4.66529 -6.16534,8.13014c-0.40987,1.38115 -0.44448,3.52443 -0.50158,31.11149l-0.06155,29.628l0.54212,-0.1545c3.62208,-1.03283 9.75973,-1.86715 15.06059,-2.04762l4.38323,-0.14907l0.0665,-23.26119l0.06675,-23.26119l0.53347,-0.98883c0.62444,-1.15693 1.59275,-2.10793 2.80382,-2.7529c0.82444,-0.43904 1.84392,-0.46079 21.63061,-0.46079c18.99687,0 20.93942,0.03758 22.80855,0.44102c12.22562,2.63795 20.93101,11.4222 23.69454,23.90887c0.58613,2.64783 0.58143,9.54862 -0.00816,12.22958c-1.39622,6.34827 -3.96965,11.29958 -7.9969,15.38517c-4.70756,4.77604 -10.12189,7.58703 -16.8301,8.73778c-2.65476,0.45536 -4.15975,0.48131 -27.98284,0.48131c-16.05659,0 -26.31765,0.0974 -28.32596,0.26921c-2.01919,0.17255 -4.52933,0.60986 -6.99695,1.21922c-9.61116,2.37319 -15.17925,5.36093 -21.58932,11.58437l-2.16702,2.10398l0.07095,-44.60751l0.07095,-44.60775l0.58069,-2.22486c0.73346,-2.8105 2.55736,-6.94108 4.06878,-9.21464c3.92317,-5.90108 10.36811,-10.24178 17.34157,-11.67954c2.11065,-0.43508 3.89326,-0.4556 34.73258,-0.39627c29.54988,0.05686 32.75517,0.10185 35.22699,0.49466M165.49439,96.35042c-0.51345,1.86345 -1.38436,3.4478 -2.18259,3.97064c-0.32013,0.20988 -1.43701,0.68501 -2.48221,1.05607c-1.04494,0.37081 -1.90003,0.70676 -1.90003,0.74607c0,0.03955 0.5839,0.26303 1.29784,0.49664c1.99521,0.65312 3.5269,1.49684 3.98423,2.19495c0.22817,0.34831 0.70676,1.51958 1.06373,2.60309c0.35697,1.08326 0.73272,1.91808 0.83482,1.85504c0.10234,-0.06328 0.32335,-0.69935 0.49145,-1.41353c0.67389,-2.86365 1.71957,-4.03096 4.37111,-4.87962c0.92208,-0.29517 1.84367,-0.59602 2.04762,-0.66845c0.21285,-0.07565 -0.31692,-0.36859 -1.24271,-0.68748c-3.32815,-1.1458 -4.15159,-1.91833 -4.96738,-4.65886c-0.29072,-0.97647 -0.60912,-1.86493 -0.70751,-1.97419c-0.09839,-0.10927 -0.37205,0.50257 -0.60838,1.35964M128.54066,98.21807c-0.46623,0.23757 -1.07807,0.74607 -1.35964,1.12974c-0.48898,0.66598 -0.51518,1.05533 -0.58341,8.66312c-0.10061,11.25014 -0.79996,10.53843 10.35575,10.53893c10.77995,0.00074 10.10928,0.6991 10.10978,-10.53102c0.00074,-10.89762 0.66672,-10.23313 -10.25859,-10.23313c-6.57249,0 -7.51262,0.04919 -8.26388,0.43236M153.10907,114.2131c-0.82666,0.82641 -0.81331,2.07654 0.03313,3.08218l0.64002,0.76066h9.09104h9.09079l0.65188,-0.65164c0.88278,-0.88278 0.90305,-2.33314 0.04474,-3.19119l-0.60665,-0.60689h-9.16915h-9.16915l-0.60665,0.60689M127.18547,124.99676c-0.36043,0.42841 -0.64002,1.06793 -0.64002,1.46421c0,0.39627 0.27959,1.0358 0.64002,1.46421l0.64002,0.76066h21.99845h21.99845l0.72259,-0.72259c0.49318,-0.49318 0.72259,-0.97029 0.72259,-1.50228c0,-0.53199 -0.22941,-1.0091 -0.72259,-1.50228l-0.72259,-0.72259h-21.99845h-21.99845l-0.64002,0.76066M127.26804,134.84697c-0.49318,0.49318 -0.72259,0.97029 -0.72259,1.50228c0,0.53199 0.22941,1.0091 0.72259,1.50228l0.72259,0.72259h15.08482h15.08482l0.68822,-0.59181c0.98042,-0.84347 0.98042,-2.42263 0,-3.2661l-0.68822,-0.59181h-15.08482h-15.08482l-0.72259,0.72259" fill="white" /></g></svg>